<svg width="46" height="51" viewBox="0 0 46 51" fill="none" xmlns="http://www.w3.org/2000/svg">
<path d="M32 49C34.7614 49 37 46.7614 37 44C37 41.2386 34.7614 39 32 39C29.2386 39 27 41.2386 27 44C27 46.7614 29.2386 49 32 49Z" stroke="#0053BD" stroke-width="3"/>
<path d="M14 49C16.7614 49 19 46.7614 19 44C19 41.2386 16.7614 39 14 39C11.2386 39 9 41.2386 9 44C9 46.7614 11.2386 49 14 49Z" stroke="#0053BD" stroke-width="3"/>
<path d="M11 13H42L36.5958 32H11V13Z" stroke="#0053BD" stroke-width="5"/>
<path d="M11 1V26.625" stroke="#0053BD" stroke-width="5"/>
<path d="M13.5 3H0" stroke="#0053BD" stroke-width="5"/>
</svg>
