<svg width="320" height="70" viewBox="0 0 320 70" fill="none" xmlns="http://www.w3.org/2000/svg">
<path d="M21.7031 39.7793V44.8789H18.3125V39.7793H13.2539V36.4023H18.3125V31.3301H21.7031V36.4023H26.8027V39.7793H21.7031ZM33.748 46C34.0215 44.2044 34.4089 42.5319 34.9102 40.9824C35.4115 39.4329 36.0085 37.9382 36.7012 36.498C37.403 35.0579 38.4648 33.2031 39.8867 30.9336H31.3555V26.3945H45.6973V29.8398C44.3939 32.1641 43.4049 34.1055 42.7305 35.6641C42.0651 37.2227 41.4863 38.8451 40.9941 40.5312C40.5111 42.2083 40.1146 44.0312 39.8047 46H33.748ZM59.998 46V31.8906C59.36 32.2643 58.6992 32.5514 58.0156 32.752C57.332 32.9434 56.5573 33.0846 55.6914 33.1758V28.8008C56.9219 28.5911 58.0658 28.263 59.123 27.8164C60.1895 27.3607 61.2786 26.7409 62.3906 25.957H65.8223V46H59.998ZM73.5332 46V31.8906C72.8952 32.2643 72.2344 32.5514 71.5508 32.752C70.8672 32.9434 70.0924 33.0846 69.2266 33.1758V28.8008C70.457 28.5911 71.6009 28.263 72.6582 27.8164C73.7246 27.3607 74.8138 26.7409 75.9258 25.957H79.3574V46H73.5332ZM87.0684 46V31.8906C86.4303 32.2643 85.7695 32.5514 85.0859 32.752C84.4023 32.9434 83.6276 33.0846 82.7617 33.1758V28.8008C83.9922 28.5911 85.1361 28.263 86.1934 27.8164C87.2598 27.3607 88.349 26.7409 89.4609 25.957H92.8926V46H87.0684ZM104.227 46V44.4277C104.227 43.3158 104.363 42.3496 104.637 41.5293C104.91 40.709 105.339 39.9388 105.922 39.2188C106.514 38.4987 107.54 37.5736 108.998 36.4434C110.037 35.623 110.725 35.0352 111.062 34.6797C111.409 34.3151 111.664 33.9642 111.828 33.627C112.001 33.2897 112.088 32.9251 112.088 32.5332C112.088 31.2298 111.304 30.5781 109.736 30.5781C108.141 30.5781 106.633 31.1569 105.211 32.3145V27.543C106.296 26.9961 107.307 26.6133 108.246 26.3945C109.194 26.1758 110.165 26.0664 111.158 26.0664C113.291 26.0664 114.941 26.5768 116.107 27.5977C117.274 28.6185 117.857 30.0495 117.857 31.8906C117.857 33.3034 117.552 34.502 116.941 35.4863C116.331 36.4707 115.196 37.4961 113.537 38.5625C112.27 39.3828 111.427 39.9844 111.008 40.3672C110.598 40.7409 110.388 41.0599 110.379 41.3242H118.035V46H104.227ZM121.016 46V44.4277C121.016 43.3158 121.152 42.3496 121.426 41.5293C121.699 40.709 122.128 39.9388 122.711 39.2188C123.303 38.4987 124.329 37.5736 125.787 36.4434C126.826 35.623 127.514 35.0352 127.852 34.6797C128.198 34.3151 128.453 33.9642 128.617 33.627C128.79 33.2897 128.877 32.9251 128.877 32.5332C128.877 31.2298 128.093 30.5781 126.525 30.5781C124.93 30.5781 123.422 31.1569 122 32.3145V27.543C123.085 26.9961 124.096 26.6133 125.035 26.3945C125.983 26.1758 126.954 26.0664 127.947 26.0664C130.08 26.0664 131.73 26.5768 132.896 27.5977C134.063 28.6185 134.646 30.0495 134.646 31.8906C134.646 33.3034 134.341 34.502 133.73 35.4863C133.12 36.4707 131.985 37.4961 130.326 38.5625C129.059 39.3828 128.216 39.9844 127.797 40.3672C127.387 40.7409 127.177 41.0599 127.168 41.3242H134.824V46H121.016ZM137.805 46V44.4277C137.805 43.3158 137.941 42.3496 138.215 41.5293C138.488 40.709 138.917 39.9388 139.5 39.2188C140.092 38.4987 141.118 37.5736 142.576 36.4434C143.615 35.623 144.303 35.0352 144.641 34.6797C144.987 34.3151 145.242 33.9642 145.406 33.627C145.579 33.2897 145.666 32.9251 145.666 32.5332C145.666 31.2298 144.882 30.5781 143.314 30.5781C141.719 30.5781 140.211 31.1569 138.789 32.3145V27.543C139.874 26.9961 140.885 26.6133 141.824 26.3945C142.772 26.1758 143.743 26.0664 144.736 26.0664C146.869 26.0664 148.519 26.5768 149.686 27.5977C150.852 28.6185 151.436 30.0495 151.436 31.8906C151.436 33.3034 151.13 34.502 150.52 35.4863C149.909 36.4707 148.774 37.4961 147.115 38.5625C145.848 39.3828 145.005 39.9844 144.586 40.3672C144.176 40.7409 143.966 41.0599 143.957 41.3242H151.613V46H137.805ZM155.318 40.627V36.7031H162.797V40.627H155.318ZM179.531 40.3945C179.531 42.2812 178.848 43.7441 177.48 44.7832C176.113 45.8223 174.158 46.3418 171.615 46.3418C170.667 46.3418 169.729 46.2598 168.799 46.0957C167.869 45.9408 167.072 45.7311 166.406 45.4668V40.9004C167.017 41.265 167.714 41.5521 168.498 41.7617C169.282 41.9714 170.075 42.0762 170.877 42.0762C171.807 42.0762 172.518 41.9121 173.01 41.584C173.511 41.2467 173.762 40.7682 173.762 40.1484C173.762 39.5195 173.456 39.0273 172.846 38.6719C172.235 38.3164 171.383 38.1387 170.289 38.1387H168.402V33.8457H170.07C171.173 33.8457 171.984 33.6771 172.504 33.3398C173.033 32.9935 173.297 32.5469 173.297 32C173.297 31.4805 173.096 31.0703 172.695 30.7695C172.303 30.4688 171.697 30.3184 170.877 30.3184C169.61 30.3184 168.343 30.6829 167.076 31.4121V27.0508C168.662 26.3945 170.33 26.0664 172.08 26.0664C174.249 26.0664 175.949 26.5085 177.18 27.3926C178.41 28.2767 179.025 29.5026 179.025 31.0703C179.025 32.2917 178.693 33.3171 178.027 34.1465C177.371 34.9759 176.446 35.5182 175.252 35.7734V35.8418C176.574 36.0241 177.617 36.5299 178.383 37.3594C179.148 38.1797 179.531 39.1914 179.531 40.3945ZM196.32 40.3945C196.32 42.2812 195.637 43.7441 194.27 44.7832C192.902 45.8223 190.947 46.3418 188.404 46.3418C187.456 46.3418 186.518 46.2598 185.588 46.0957C184.658 45.9408 183.861 45.7311 183.195 45.4668V40.9004C183.806 41.265 184.503 41.5521 185.287 41.7617C186.071 41.9714 186.864 42.0762 187.666 42.0762C188.596 42.0762 189.307 41.9121 189.799 41.584C190.3 41.2467 190.551 40.7682 190.551 40.1484C190.551 39.5195 190.245 39.0273 189.635 38.6719C189.024 38.3164 188.172 38.1387 187.078 38.1387H185.191V33.8457H186.859C187.962 33.8457 188.773 33.6771 189.293 33.3398C189.822 32.9935 190.086 32.5469 190.086 32C190.086 31.4805 189.885 31.0703 189.484 30.7695C189.092 30.4688 188.486 30.3184 187.666 30.3184C186.399 30.3184 185.132 30.6829 183.865 31.4121V27.0508C185.451 26.3945 187.119 26.0664 188.869 26.0664C191.038 26.0664 192.738 26.5085 193.969 27.3926C195.199 28.2767 195.814 29.5026 195.814 31.0703C195.814 32.2917 195.482 33.3171 194.816 34.1465C194.16 34.9759 193.235 35.5182 192.041 35.7734V35.8418C193.363 36.0241 194.406 36.5299 195.172 37.3594C195.938 38.1797 196.32 39.1914 196.32 40.3945ZM200.299 40.627V36.7031H207.777V40.627H200.299ZM224.512 40.3945C224.512 42.2812 223.828 43.7441 222.461 44.7832C221.094 45.8223 219.139 46.3418 216.596 46.3418C215.648 46.3418 214.709 46.2598 213.779 46.0957C212.85 45.9408 212.052 45.7311 211.387 45.4668V40.9004C211.997 41.265 212.695 41.5521 213.479 41.7617C214.262 41.9714 215.055 42.0762 215.857 42.0762C216.787 42.0762 217.498 41.9121 217.99 41.584C218.492 41.2467 218.742 40.7682 218.742 40.1484C218.742 39.5195 218.437 39.0273 217.826 38.6719C217.215 38.3164 216.363 38.1387 215.27 38.1387H213.383V33.8457H215.051C216.154 33.8457 216.965 33.6771 217.484 33.3398C218.013 32.9935 218.277 32.5469 218.277 32C218.277 31.4805 218.077 31.0703 217.676 30.7695C217.284 30.4688 216.678 30.3184 215.857 30.3184C214.59 30.3184 213.324 30.6829 212.057 31.4121V27.0508C213.643 26.3945 215.311 26.0664 217.061 26.0664C219.23 26.0664 220.93 26.5085 222.16 27.3926C223.391 28.2767 224.006 29.5026 224.006 31.0703C224.006 32.2917 223.673 33.3171 223.008 34.1465C222.352 34.9759 221.426 35.5182 220.232 35.7734V35.8418C221.554 36.0241 222.598 36.5299 223.363 37.3594C224.129 38.1797 224.512 39.1914 224.512 40.3945ZM241.301 40.3945C241.301 42.2812 240.617 43.7441 239.25 44.7832C237.883 45.8223 235.928 46.3418 233.385 46.3418C232.437 46.3418 231.498 46.2598 230.568 46.0957C229.639 45.9408 228.841 45.7311 228.176 45.4668V40.9004C228.786 41.265 229.484 41.5521 230.268 41.7617C231.051 41.9714 231.844 42.0762 232.646 42.0762C233.576 42.0762 234.287 41.9121 234.779 41.584C235.281 41.2467 235.531 40.7682 235.531 40.1484C235.531 39.5195 235.226 39.0273 234.615 38.6719C234.005 38.3164 233.152 38.1387 232.059 38.1387H230.172V33.8457H231.84C232.943 33.8457 233.754 33.6771 234.273 33.3398C234.802 32.9935 235.066 32.5469 235.066 32C235.066 31.4805 234.866 31.0703 234.465 30.7695C234.073 30.4688 233.467 30.3184 232.646 30.3184C231.38 30.3184 230.113 30.6829 228.846 31.4121V27.0508C230.432 26.3945 232.1 26.0664 233.85 26.0664C236.019 26.0664 237.719 26.5085 238.949 27.3926C240.18 28.2767 240.795 29.5026 240.795 31.0703C240.795 32.2917 240.462 33.3171 239.797 34.1465C239.141 34.9759 238.215 35.5182 237.021 35.7734V35.8418C238.343 36.0241 239.387 36.5299 240.152 37.3594C240.918 38.1797 241.301 39.1914 241.301 40.3945Z" fill="#0053BD"/>
<path d="M284.212 12.168C283.904 12.3707 283.618 12.9037 283.618 13.264C283.618 13.6393 283.881 14.1273 284.204 14.3375C284.392 14.4651 284.723 14.5627 285.234 14.6528C285.986 14.7804 288.144 15.3284 288.994 15.6136C292.964 16.9274 296.738 19.3971 299.453 22.4449C301.084 24.2766 302.603 26.6113 303.498 28.6606C303.656 29.0135 303.814 29.3663 303.851 29.4489C304.25 30.3046 305.107 33.2248 305.385 34.6662C305.521 35.3418 305.731 35.6721 306.19 35.9123C306.829 36.2426 307.821 35.7772 307.987 35.064C308.062 34.7262 307.806 33.1498 307.453 31.776C306.22 27.0391 303.934 22.9854 300.618 19.6298C298.626 17.6105 296.393 15.989 293.881 14.7353C291.287 13.4366 288.979 12.6634 286.265 12.1755C284.956 11.9428 284.55 11.9428 284.212 12.168Z" fill="#0053BD"/>
<path d="M265.234 13.6243C264.828 13.6844 263.963 13.9621 263.618 14.1348C263.43 14.2324 262.994 14.5176 262.648 14.7729C261.963 15.2758 261.768 15.5836 261.858 16.004C261.896 16.1842 263.204 17.5279 267.745 22.0696C271.663 25.9882 273.648 27.9175 273.791 27.9475C274.249 28.0676 274.648 27.7673 275.272 26.859C275.663 26.2885 275.783 26.0332 276.009 25.3276C276.182 24.7871 276.197 24.5919 276.204 23.5935C276.204 22.3398 276.137 22.0245 275.588 20.9435C275.212 20.1778 274.761 19.6824 272.069 17.0249C269.558 14.5402 269.264 14.3149 268.046 13.8645C267.475 13.6468 267.317 13.6243 266.437 13.6093C265.903 13.5943 265.362 13.6018 265.234 13.6243Z" fill="#0053BD"/>
<path d="M283.663 17.648C283.024 18.0459 282.821 18.8716 283.212 19.4797C283.468 19.8701 283.655 19.9752 284.46 20.1703C288.099 21.0787 291.077 22.6326 293.723 25.0198C294.656 25.8606 295.836 27.1668 296.385 27.97C297.295 29.2912 297.708 29.9743 298.175 30.9127C298.926 32.4366 299.175 33.1122 299.859 35.4619C299.941 35.7547 300.077 36.085 300.16 36.1825C300.483 36.6029 301.257 36.7456 301.791 36.4903C302.137 36.3252 302.43 35.8748 302.468 35.4319C302.551 34.5836 301.498 31.4082 300.423 29.2612C299.754 27.925 298.708 26.341 297.626 25.0198C297.265 24.5769 295.776 23.098 295.197 22.5951C293.761 21.3639 292.4 20.4406 290.836 19.6524C288.731 18.5939 285.843 17.618 284.483 17.5054C284.016 17.4678 283.926 17.4829 283.663 17.648Z" fill="#0053BD"/>
<path d="M260.039 17.7456C259.587 17.9633 258.745 19.7199 258.362 21.2588C258.024 22.5876 257.933 23.6235 258.046 24.9597C258.174 26.5212 258.49 27.7223 259.121 29.1111C259.242 29.3813 259.557 30.1245 259.821 30.7626C263.332 39.3279 268.836 46.7147 275.986 52.4275C279.911 55.5654 284.753 58.388 289.438 60.2647C289.979 60.4749 290.535 60.7151 290.678 60.7902C291.596 61.2481 293.182 61.736 294.22 61.8787C296.633 62.209 298.934 61.8637 301.062 60.8577C301.49 60.655 301.957 60.3998 302.092 60.2947C302.37 60.0845 302.498 59.7317 302.4 59.4014C302.31 59.0786 291.047 47.8333 290.701 47.7207C290.31 47.593 290.107 47.6906 289.415 48.3512C288.701 49.0344 288.31 49.2971 287.641 49.5148C286.633 49.8451 285.558 49.77 284.513 49.2896C283.422 48.7866 280.129 46.5045 278.58 45.1833C276.189 43.1414 274.107 40.8293 272.603 38.5547C270.979 36.0925 270.67 35.5445 270.467 34.7037C270.106 33.2398 270.512 31.8586 271.663 30.6575C271.979 30.3197 272.287 29.9743 272.332 29.8768C272.558 29.4489 272.618 29.5164 266.64 23.5259C263.332 20.2229 260.851 17.7906 260.708 17.7306C260.407 17.603 260.332 17.603 260.039 17.7456Z" fill="#0053BD"/>
<path d="M283.204 23.1356C282.686 23.3608 282.272 24.1115 282.377 24.6294C282.445 24.9672 282.753 25.4101 282.994 25.5303C283.114 25.5903 283.61 25.7855 284.107 25.9582C285.272 26.3785 286.032 26.7314 286.994 27.3019C290.227 29.2312 292.723 32.2114 293.964 35.627C294.295 36.5354 294.385 36.7005 294.701 36.9783C295.175 37.3912 295.889 37.3761 296.408 36.9407C296.964 36.4678 296.987 35.9724 296.513 34.6586C294.678 29.5915 290.768 25.5753 285.821 23.6986C284.039 23.023 283.648 22.9404 283.204 23.1356Z" fill="#0053BD"/>
<path d="M295.611 43.8621C294.385 44.0573 293.393 44.5302 292.573 45.3109C292.182 45.6788 292.114 45.7839 292.114 46.0091C292.114 46.1742 292.182 46.3694 292.302 46.5271C292.4 46.6622 295.054 49.3346 298.19 52.465L303.897 58.1628H304.242C304.656 58.1628 304.874 57.9976 305.408 57.2769C306.13 56.301 306.453 55.3702 306.528 54.0715C306.588 53.013 306.438 52.3449 305.897 51.2564L305.468 50.3931L303.024 47.9308C300.46 45.356 299.844 44.793 299.22 44.4852C298.581 44.1699 297.814 43.9147 297.25 43.8321C296.596 43.7345 296.385 43.7345 295.611 43.8621Z" fill="#0053BD"/>
<rect x="1.5" y="1.5" width="317" height="67" rx="31.5" stroke="#0053BD" stroke-width="3"/>
</svg>
