<svg width="50" height="50" viewBox="0 0 50 50" fill="none" xmlns="http://www.w3.org/2000/svg">
<path fill-rule="evenodd" clip-rule="evenodd" d="M31.0705 31.4785C24.798 31.4785 19.713 26.1934 19.713 19.674C19.713 13.1546 24.798 7.86961 31.0705 7.86961C37.3431 7.86961 42.4281 13.1546 42.4281 19.674C42.4281 26.1934 37.3431 31.4785 31.0705 31.4785ZM14.5593 29.3027C13.0196 26.4565 12.1413 23.1719 12.1413 19.674C12.1413 8.80836 20.6163 -3.8147e-06 31.0705 -3.8147e-06C41.5249 -3.8147e-06 49.9998 8.80836 49.9998 19.674C49.9998 30.5396 41.5249 39.3481 31.0705 39.3481C26.7255 39.3481 22.7226 37.8265 19.5277 35.2683L5.3537 50L-0.000240245 44.4354L14.5593 29.3027Z" fill="#0053BD"/>
</svg>
